# xmcd
#
# Track frame offsets: 
#        150
#        28630
#        58205
#        79012
#        105717
#        123202
#        148555
#        171862
#        195465
#        218075
#
# Disc length: 3224 seconds
#
# Revision: 9
# Processed by: cddbd v1.5.2PL0 Copyright (c) Steve Scherf et al.
# Submitted via: ExactAudioCopy v0.99pb5
#
DISCID=860c960a
DTITLE=Van Morrison - The Healing Game
DYEAR=1997
DGENRE=Rock
TTITLE0=Rough God Goes Riding
TTITLE1=Fire in the Belly
TTITLE2=This Weight
TTITLE3=Waiting Game
TTITLE4=Piper at the Gates of Dawn
TTITLE5=Burning Ground
TTITLE6=It Once was My Life
TTITLE7=Sometimes We Cry
TTITLE8=If You Love Me
TTITLE9=The Healing Game
EXTD=YEAR: 1997
EXTT0=
EXTT1=
EXTT2=
EXTT3=
EXTT4=
EXTT5=
EXTT6=
EXTT7=
EXTT8=
EXTT9=
PLAYORDER=
